<?xml version="1.0" encoding="iso-8859-1"?>
<!-- Generator: Adobe Illustrator 19.0.0, SVG Export Plug-In . SVG Version: 6.00 Build 0)  -->
<svg xmlns="http://www.w3.org/2000/svg" xmlns:xlink="http://www.w3.org/1999/xlink" version="1.1" id="Layer_1" x="0px" y="0px" viewBox="0 0 463 463" style="enable-background:new 0 0 463 463;" xml:space="preserve" width="24px" height="24px">
<g>
	<g>
		<g>
			<path d="M391.5,431c4.142,0,7.5-3.358,7.5-7.5v-8c0-89.846-71.108-163.386-160-167.323V239h0.5c12.958,0,23.5-10.542,23.5-23.5     S252.458,192,239.5,192h-16c-12.958,0-23.5,10.542-23.5,23.5s10.542,23.5,23.5,23.5h0.5v9.176     C135.108,252.114,64,325.654,64,415.5v8c0,4.142,3.358,7.5,7.5,7.5H80v17h-8.5c-4.142,0-7.5,3.358-7.5,7.5     c0,4.142,3.358,7.5,7.5,7.5h320c4.142,0,7.5-3.358,7.5-7.5c0-4.142-3.358-7.5-7.5-7.5H383v-17H391.5z M223.5,224     c-4.687,0-8.5-3.813-8.5-8.5s3.813-8.5,8.5-8.5h16c4.687,0,8.5,3.813,8.5,8.5s-3.813,8.5-8.5,8.5H223.5z M368,448H95v-17h273V448     z M79,416v-0.5C79,331.411,147.411,263,231.5,263S384,331.411,384,415.5v0.5H79z" fill="#696969"/>
			<path d="M316.155,309.271c-3.255-2.561-7.971-1.998-10.532,1.257c-2.56,3.257-1.997,7.972,1.258,10.533     c22.879,17.998,38.602,43.534,44.273,71.904c0.713,3.565,3.844,6.031,7.347,6.031c0.487,0,0.982-0.048,1.478-0.147     c4.062-0.812,6.696-4.763,5.884-8.825C359.492,358.155,341.84,329.476,316.155,309.271z" fill="#696969"/>
			<path d="M282.279,289.72c-8.184-3.268-16.729-5.748-25.397-7.372c-4.078-0.762-7.99,1.92-8.753,5.991     c-0.762,4.071,1.919,7.989,5.991,8.752c7.713,1.445,15.316,3.652,22.598,6.559c0.912,0.364,1.853,0.537,2.778,0.537     c2.979,0,5.796-1.786,6.968-4.721C288,295.619,286.127,291.256,282.279,289.72z" fill="#696969"/>
			<path d="M169.628,153.628c-2.929,2.929-2.929,7.678,0,10.606c2.929,2.929,7.678,2.929,10.606,0     C193.928,150.541,212.135,143,231.5,143s37.572,7.541,51.265,21.235c1.464,1.465,3.384,2.197,5.303,2.197     s3.839-0.732,5.303-2.197c2.929-2.929,2.929-7.677,0-10.606C276.845,137.102,254.872,128,231.5,128     S186.155,137.102,169.628,153.628z" fill="#696969"/>
			<path d="M333.323,121.177c1.919,0,3.839-0.732,5.303-2.197c2.929-2.929,2.929-7.677,0-10.606     c-59.069-59.07-155.184-59.07-214.253,0c-2.929,2.929-2.929,7.677,0,10.606c2.929,2.929,7.678,2.929,10.606,0     c53.222-53.221,139.818-53.221,193.04,0C329.484,120.444,331.404,121.177,333.323,121.177z" fill="#696969"/>
			<path d="M89.725,73.725C127.595,35.856,177.944,15,231.5,15c53.556,0,103.905,20.856,141.775,58.725     c1.464,1.465,3.384,2.197,5.303,2.197s3.839-0.732,5.303-2.197c2.929-2.929,2.929-7.677,0-10.606     C343.179,22.416,289.062,0,231.5,0S119.821,22.416,79.119,63.119c-2.929,2.929-2.929,7.677,0,10.606     C82.047,76.654,86.796,76.654,89.725,73.725z" fill="#696969"/>
		</g>
	</g>
</g>
<g>
</g>
<g>
</g>
<g>
</g>
<g>
</g>
<g>
</g>
<g>
</g>
<g>
</g>
<g>
</g>
<g>
</g>
<g>
</g>
<g>
</g>
<g>
</g>
<g>
</g>
<g>
</g>
<g>
</g>
</svg>
